<?xml version="1.0"?>
<svg version="1.1" xmlns="http://www.w3.org/2000/svg" width="400px" height="400px" style=""><path fill="#ffffff" d="M111.9,195l-15.7,0l-3.1,0l0,35.15l3.1,0l0-17.6l15.7,0q3.8,0,6.3-2.5t2.5-6.25q0-3.4-2.5-6.05q-2.65-2.75-6.3-2.75z M111.9,209.45l-15.7,0l0-11.35l15.7,0q2.3,0,4.05,1.65q1.65,1.75,1.65,4.05q0,2.35-1.65,4q-1.75,1.65-4.05,1.65z M134.742,198.65l18.85,0l0-3.8l-18.85,0q-3.7,0-6.2,2.9q-2.55,2.95-2.55,7.15q0,3.8,2.55,6.6q2.5,2.85,6.2,2.85l5,0l5.1,0q2.25,0,4,1.9q1.65,2,1.65,4.35q0,2.8-1.625,4.55t-4.025,1.75l-18.85,0l0,3.1l18.85,0q3.75,0,6.25-2.6t2.5-6.8q0-3.8-2.5-6.6q-2.55-2.8-6.25-2.8l-5.1,0l-5,0q-2.3,0-3.95-2q-1.7-1.85-1.7-4.3q0-2.8,1.625-4.525t4.025-1.725z M160.934,230.05l3.15,0l0-35.15l-3.15,0l0,35.15z M194.426,230l5.05,0l-22.35-17.85l22.35-17.2l-5.05,0l-19.2,15.3l0-15.3l-3.15,0l0,35.05l3.15,0l0-15.3z M220.018,195q-5.65,0-9.7,4.05q-4.1,4.1-4.1,9.75l0,7.55q0,5.55,4.1,9.65t9.7,4.1q5.65,0,9.75-4.1q4.05-4.05,4.05-9.65l0-7.55q0-5.7-4.05-9.75t-9.75-4.05z M230.718,208.8l0,7.55q0,4.55-3.2,7.65q-3.15,3-7.5,3t-7.45-3q-3.2-3.1-3.2-7.65l0-7.55q0-4.2,3.2-7.5q3.2-3.2,7.45-3.2q4.2,0,7.5,3.2q3.2,3.3,3.2,7.5z M252.21,194.95l-7.65,0l-1.9,0l-1.25,0l0,35.05l1.25,0l1.9,0l7.65,0q7.3,0,12.5-5.1q5.35-5.25,5.35-12.75q0-7.1-5.35-12.2q-5.25-5-12.5-5z M252.21,226.85l-7.65,0l0-28.65l7.65,0q6.25,0,10.5,4.1q4.2,4.1,4.2,9.85q0,6.25-4.2,10.45q-4.25,4.25-10.5,4.25z M295.602,198.65l-18.85,0l0-3.8l18.85,0q3.7,0,6.2,2.9q2.55,2.95,2.55,7.15q0,3.8-2.55,6.6q-2.5,2.85-6.2,2.85l-5,0l-5.1,0q-2.25,0-4,1.9q-1.65,2-1.65,4.35q0,2.8,1.625,4.55t4.025,1.75l18.85,0l0,3.1l-18.85,0q-3.75,0-6.25-2.6t-2.5-6.8q0-3.8,2.5-6.6q2.55-2.8,6.25-2.8l5.1,0l5,0q2.3,0,3.95-2q1.7-1.85,1.7-4.3q0-2.8-1.625-4.525t-4.025-1.725z"/><path fill="#" d=""/></svg>
