<svg width="50" height="50" viewBox="0 0 50 50" fill="none" xmlns="http://www.w3.org/2000/svg">
<g clip-path="url(#clip0_4_1083)">
<path d="M44.7834 9.71515C45.9647 11.2406 46.9739 12.9066 47.7796 14.6852L24.9991 31.4732L15.4825 25.5071V18.33L24.9991 24.2961L44.7834 9.71515Z" fill="#21A038"/>
<path d="M5.77413 25.0009C5.77413 24.6783 5.7824 24.359 5.79895 24.0397L0.0314351 23.7518C0.0115814 24.1654 0 24.5823 0 25.0009C0 31.905 2.79772 38.1557 7.32272 42.679L11.4126 38.5891C7.92992 35.1081 5.77413 30.3019 5.77413 25.0009Z" fill="#21A038"/>
<path d="M24.9993 5.77585C25.3219 5.77585 25.6412 5.78743 25.9605 5.80232L26.2484 0.0314961C25.8348 0.0116424 25.4179 6.10352e-05 24.9993 6.10352e-05C18.0951 6.10352e-05 11.8445 2.79778 7.32117 7.32278L11.411 11.4127C14.8921 7.93163 19.6983 5.77585 24.9993 5.77585Z" fill="#21A038"/>
<path d="M24.9991 44.2259C24.6765 44.2259 24.3572 44.2177 24.0379 44.2011L23.75 49.9686C24.1636 49.9885 24.5805 50.0001 24.9991 50.0001C31.9033 50.0001 38.1539 47.2023 42.6772 42.6773L38.5874 38.5875C35.1063 42.0701 30.3001 44.2259 24.9991 44.2259Z" fill="#21A038"/>
<path d="M35.8376 9.13113L40.7001 5.54753C36.4084 2.07974 30.947 6.10352e-05 24.9991 6.10352e-05V5.77585C29.0162 5.77585 32.7504 7.01505 35.8376 9.13113Z" fill="#21A038"/>
<path d="M50 25.0009C50 23.4722 49.8627 21.9748 49.5996 20.5222L44.2176 24.488C44.2226 24.6584 44.2242 24.8288 44.2242 25.0009C44.2242 30.646 41.7789 35.7302 37.8909 39.2509L41.7706 43.5393C46.8251 38.9663 50 32.3534 50 25.0009Z" fill="#21A038"/>
<path d="M24.9991 44.2259C19.354 44.2259 14.2698 41.7806 10.7491 37.8926L6.46069 41.7723C11.0353 46.8251 17.6466 50.0001 24.9991 50.0001V44.2259Z" fill="#21A038"/>
<path d="M12.1075 10.7509L8.22772 6.46246C3.17494 11.0371 0 17.6484 0 25.0009H5.77579C5.77413 19.3558 8.21945 14.2716 12.1075 10.7509Z" fill="#21A038"/>
</g>
<defs>
<clipPath id="clip0_4_1083">
<rect width="50" height="50" fill="white"/>
</clipPath>
</defs>
</svg>
